<?xml version="1.0" encoding="UTF-8"?>
<svg id="Capa_2" data-name="Capa 2" xmlns="http://www.w3.org/2000/svg" viewBox="0 0 183.32 250.36">
  <defs>
    <style>
      .cls-1 {
        stroke-width: 0px;
      }
    </style>
  </defs>
  <g id="pagina_1" data-name="pagina 1">
    <g>
      <path class="cls-1" d="m98.99,131.87c.31-2.25.59-4.5.66-6.76.34-10.67.36-21.35.61-32.03.05-2-.51-3.03-2.53-3.78-7.33-2.75-12.24-11.52-10.83-19.24.67-3.63,1.7-7.2,2.6-10.78.1-.39-.18-.78-.58-.83-12.37-1.58-19.21-15.1-11.05-28.04.21-.34.1-.79-.27-.97-1.73-.82-3.52-1.55-5.1-2.58-5.4-3.54-7.82-8.64-6.75-15,.97-5.75,4.34-9.71,10.1-11.35,5.57-1.59,11.78.66,15.25,5.46,3.52,4.87,3.71,11.63.38,16.4-.91,1.3-1.96,2.5-3.11,3.89-.3.37-.13.92.32,1.07,5.81,1.95,9.88,5.68,12.09,11.13,2.28,5.63,1.54,10.97-2.75,15.8-.29.33-.21.85.18,1.05.84.43,1.61.84,2.39,1.22,6.6,3.25,11.43,8.07,13.42,15.32,1.94,7.04-.98,14.09-7.38,17.43-1.48.77-1.58,1.71-1.57,3.04.03,8.03.41,16.08-.08,24.08-.58,9.53-1.93,19.01-2.94,28.51-.18,1.71-.36,3.41-.53,5.12-.04.35.2.66.54.73h.01c.33.07.65-.13.76-.44.6-1.8,1.27-3.59,1.74-5.42,2.9-11.17,5.11-22.57,8.75-33.5,6.73-20.19,17.64-38.22,31.35-54.41,6.77-7.99,14.41-15.25,21.67-22.82.5-.52,1.1-1.08,1.76-1.27.98-.3,2.32-.72,3.02-.29.71.43,1.27,1.87,1.17,2.8-3.9,37.17-15.5,70.85-43.41,97.41-9.04,8.61-17.39,17.96-25.96,27.05-1.8,1.91-3.26,4.15-4.77,6.32-.96,1.38-2.24,2.27-3.64,1.34-.8-.53-1.54-2.3-1.24-3.15,2.93-8.59-.36-15.62-5.55-22-8.57-10.55-17.24-21.02-26.12-31.3-11.94-13.84-22.55-28.45-27.83-46.25-1.78-6-3.21-12.1-4.61-18.2-.2-.89.44-2.25,1.13-2.96.49-.5,1.91-.64,2.61-.31,16.64,7.89,32.08,17.46,43.44,32.39,10.19,13.39,16.09,28.66,18.83,45.18.6,3.64,1.08,7.3,1.55,10.96,1.32,0,.93,0,2.25.01Zm11.9,9.11c-.1.63.66,1.04,1.13.6,13.88-13.02,27.61-26.05,37.04-42.82,9.47-16.85,14.22-35.07,16.2-54.2.06-.62-.68-.99-1.14-.57-11.14,10.31-20.74,21.78-28.95,34.5-12.39,19.2-20.55,39.97-24.28,62.49Zm-20.8-4.64l1.89-.72c-1.22-21.65-7.49-41.6-21.42-58.75-9.11-11.21-20.57-19.45-34.02-25.88-.47-.23-1.02.16-.96.68.06.61.1,1.01.19,1.4,3.67,16.77,10.97,31.82,21.91,45.01,8.21,9.91,16.8,19.5,25.16,29.28,2.5,2.93,4.87,5.96,7.27,8.98Zm1.33-64.84c-.03.1-.04.2-.03.3.49,4.32,1.68,7.95,4.84,10.82,4.41,4.01,11.21,2.06,12.82-3.7,1.65-5.92-2.99-14.23-9.5-16.98-2.55-1.08-4.21-.66-5.39,1.89-1.14,2.45-1.85,5.11-2.74,7.68Zm-2.05-18.7c3.11,0,5.11-1.25,6.49-4.07,2.25-4.61.82-10.5-3.7-13.85-6.29-4.65-9.63-3.15-11.93,3.47-2.42,6.96,2.38,14.44,9.15,14.45Zm-.62-38.37c-.03-5.29-4.14-9.57-9.17-9.53-4.91.03-8.84,4.3-8.8,9.56.04,5.15,4.53,9.84,9.41,9.82,4.65-.02,8.59-4.55,8.56-9.85Z"/>
      <path class="cls-1" d="m93.77,223.24c1.27-6.1,2.14-11.39,3.48-16.57,8.05-31.16,25.72-55.71,51.97-73.99,9.4-6.54,19.53-12.05,29.43-17.85,1.05-.62,2.97-.34,4.19.19.51.22.62,2.33.28,3.37-5.24,16.28-13.32,31.08-23.35,44.88-10.84,14.92-24.07,27.61-37.08,40.56-8.06,8.02-15.27,16.89-22.88,25.36-2.11,2.35-3.08,5.02-3.04,8.22.04,3.37-.34,6.74-.38,10.12-.02,1.58-.44,3.04-2.09,2.81-1.14-.16-2.72-1.28-3.05-2.31-.66-2.04-.74-4.31-.79-6.48-.06-2.48-1-4.32-2.91-5.88-12.93-10.57-25.73-21.29-38.73-31.77-23.91-19.27-38.75-44.15-46.09-73.75-.92-3.71-1.94-7.4-2.65-11.14-.21-1.13.08-2.93.84-3.53.79-.62,2.63-.6,3.67-.12,22.94,10.67,44,24.04,61.1,42.99,12.26,13.58,19.83,29.57,23.97,47.27,1.2,5.13,2.23,10.31,3.36,15.46.11.48.32.94.75,2.17Zm-6.43,4.99c.42.33,1.04.07,1.09-.47.03-.31.04-.52,0-.73-.98-5.92-1.76-11.89-3.02-17.75-3.8-17.69-11.32-33.6-23.39-47.21-15.26-17.21-33.93-29.75-54.53-39.63-.35-.17-.81-.1-1.42-.16.35,1.58.62,2.89.93,4.2,6.03,25.3,16.96,47.99,36.48,65.66,11.08,10.03,22.99,19.15,34.54,28.65,2.94,2.42,5.94,4.76,9.31,7.43Zm13.13-11.61l1.88.88c1.77-2.01,3.52-4.05,5.41-5.94,9.53-9.57,19.27-18.93,28.67-28.62,16.38-16.89,29.88-35.79,38.92-57.66.14-.34.26-.7.37-1.05l-1.52-1.26c-22,12.11-41.76,26.84-55.87,48.28-9.17,13.93-15.29,28.98-17.86,45.37Z"/>
    </g>
  </g>
</svg>